<mxfile host="app.diagrams.net" agent="Mozilla/5.0 (Macintosh; Intel Mac OS X 10_15_7) AppleWebKit/537.36 (KHTML, like Gecko) Chrome/131.0.0.0 Safari/537.36" version="24.8.3">
  <diagram name="Страница — 1" id="U_EYYr7KIztlHUleC64h">
    <mxGraphModel dx="1242" dy="749" grid="1" gridSize="10" guides="1" tooltips="1" connect="1" arrows="1" fold="1" page="1" pageScale="1" pageWidth="1169" pageHeight="827" math="0" shadow="0">
      <root>
        <mxCell id="0" />
        <mxCell id="1" parent="0" />
        <mxCell id="K5TFv7uZHJcvQe_b9qqi-123" value="" style="childLayout=tableLayout;recursiveResize=0;shadow=0;fillColor=#dae8fc;strokeColor=none;perimeterSpacing=0;" parent="1" vertex="1">
          <mxGeometry x="20" y="50" width="1119.9999999999995" height="690" as="geometry" />
        </mxCell>
        <mxCell id="K5TFv7uZHJcvQe_b9qqi-124" value="" style="shape=tableRow;horizontal=0;startSize=0;swimlaneHead=0;swimlaneBody=0;top=0;left=0;bottom=0;right=0;dropTarget=0;collapsible=0;recursiveResize=0;expand=0;fontStyle=0;fillColor=none;strokeColor=inherit;" parent="K5TFv7uZHJcvQe_b9qqi-123" vertex="1">
          <mxGeometry width="1119.9999999999995" height="80" as="geometry" />
        </mxCell>
        <mxCell id="K5TFv7uZHJcvQe_b9qqi-125" value="" style="connectable=0;recursiveResize=0;align=center;whiteSpace=wrap;html=1;strokeColor=#FFFFFF;" parent="K5TFv7uZHJcvQe_b9qqi-124" vertex="1">
          <mxGeometry width="120" height="80" as="geometry">
            <mxRectangle width="120" height="80" as="alternateBounds" />
          </mxGeometry>
        </mxCell>
        <mxCell id="K5TFv7uZHJcvQe_b9qqi-127" value="Продажи через кол-центр" style="connectable=0;recursiveResize=0;strokeColor=#FFFFFF;fillColor=none;align=center;whiteSpace=wrap;html=1;" parent="K5TFv7uZHJcvQe_b9qqi-124" vertex="1">
          <mxGeometry x="120" width="200" height="80" as="geometry">
            <mxRectangle width="200" height="80" as="alternateBounds" />
          </mxGeometry>
        </mxCell>
        <mxCell id="K5TFv7uZHJcvQe_b9qqi-157" value="Digital-оповещения клиентов" style="connectable=0;recursiveResize=0;strokeColor=#FFFFFF;fillColor=none;align=center;whiteSpace=wrap;html=1;" parent="K5TFv7uZHJcvQe_b9qqi-124" vertex="1">
          <mxGeometry x="320" width="200" height="80" as="geometry">
            <mxRectangle width="200" height="80" as="alternateBounds" />
          </mxGeometry>
        </mxCell>
        <mxCell id="K5TFv7uZHJcvQe_b9qqi-160" value="Обслуживание депозитных процессов" style="connectable=0;recursiveResize=0;strokeColor=#FFFFFF;fillColor=none;align=center;whiteSpace=wrap;html=1;" parent="K5TFv7uZHJcvQe_b9qqi-124" vertex="1">
          <mxGeometry x="520" width="300" height="80" as="geometry">
            <mxRectangle width="300" height="80" as="alternateBounds" />
          </mxGeometry>
        </mxCell>
        <mxCell id="K5TFv7uZHJcvQe_b9qqi-169" value="Обслуживание кредитных процессов" style="connectable=0;recursiveResize=0;strokeColor=#FFFFFF;fillColor=none;align=center;whiteSpace=wrap;html=1;" parent="K5TFv7uZHJcvQe_b9qqi-124" vertex="1">
          <mxGeometry x="820" width="100" height="80" as="geometry">
            <mxRectangle width="100" height="80" as="alternateBounds" />
          </mxGeometry>
        </mxCell>
        <mxCell id="K5TFv7uZHJcvQe_b9qqi-173" value="Продажи в сети отделений" style="connectable=0;recursiveResize=0;strokeColor=#FFFFFF;fillColor=none;align=center;whiteSpace=wrap;html=1;" parent="K5TFv7uZHJcvQe_b9qqi-124" vertex="1">
          <mxGeometry x="920" width="100" height="80" as="geometry">
            <mxRectangle width="100" height="80" as="alternateBounds" />
          </mxGeometry>
        </mxCell>
        <mxCell id="K5TFv7uZHJcvQe_b9qqi-214" value="Управление договорами" style="connectable=0;recursiveResize=0;strokeColor=#FFFFFF;fillColor=none;align=center;whiteSpace=wrap;html=1;" parent="K5TFv7uZHJcvQe_b9qqi-124" vertex="1">
          <mxGeometry x="1020" width="100" height="80" as="geometry">
            <mxRectangle width="100" height="80" as="alternateBounds" />
          </mxGeometry>
        </mxCell>
        <mxCell id="K5TFv7uZHJcvQe_b9qqi-163" style="shape=tableRow;horizontal=0;startSize=0;swimlaneHead=0;swimlaneBody=0;top=0;left=0;bottom=0;right=0;dropTarget=0;collapsible=0;recursiveResize=0;expand=0;fontStyle=0;fillColor=none;strokeColor=inherit;" parent="K5TFv7uZHJcvQe_b9qqi-123" vertex="1">
          <mxGeometry y="80" width="1119.9999999999995" height="80" as="geometry" />
        </mxCell>
        <mxCell id="K5TFv7uZHJcvQe_b9qqi-164" value="IT-отдел" style="connectable=0;recursiveResize=0;strokeColor=#FFFFFF;fillColor=none;align=center;whiteSpace=wrap;html=1;" parent="K5TFv7uZHJcvQe_b9qqi-163" vertex="1">
          <mxGeometry width="120" height="80" as="geometry">
            <mxRectangle width="120" height="80" as="alternateBounds" />
          </mxGeometry>
        </mxCell>
        <mxCell id="K5TFv7uZHJcvQe_b9qqi-166" style="connectable=0;recursiveResize=0;align=center;whiteSpace=wrap;html=1;strokeColor=#E6E6E6;" parent="K5TFv7uZHJcvQe_b9qqi-163" vertex="1">
          <mxGeometry x="120" width="200" height="80" as="geometry">
            <mxRectangle width="200" height="80" as="alternateBounds" />
          </mxGeometry>
        </mxCell>
        <mxCell id="K5TFv7uZHJcvQe_b9qqi-167" style="connectable=0;recursiveResize=0;align=center;whiteSpace=wrap;html=1;strokeColor=#E6E6E6;" parent="K5TFv7uZHJcvQe_b9qqi-163" vertex="1">
          <mxGeometry x="320" width="200" height="80" as="geometry">
            <mxRectangle width="200" height="80" as="alternateBounds" />
          </mxGeometry>
        </mxCell>
        <mxCell id="K5TFv7uZHJcvQe_b9qqi-168" style="connectable=0;recursiveResize=0;align=center;whiteSpace=wrap;html=1;strokeColor=#E6E6E6;" parent="K5TFv7uZHJcvQe_b9qqi-163" vertex="1">
          <mxGeometry x="520" width="300" height="80" as="geometry">
            <mxRectangle width="300" height="80" as="alternateBounds" />
          </mxGeometry>
        </mxCell>
        <mxCell id="K5TFv7uZHJcvQe_b9qqi-172" style="connectable=0;recursiveResize=0;align=center;whiteSpace=wrap;html=1;strokeColor=#E6E6E6;" parent="K5TFv7uZHJcvQe_b9qqi-163" vertex="1">
          <mxGeometry x="820" width="100" height="80" as="geometry">
            <mxRectangle width="100" height="80" as="alternateBounds" />
          </mxGeometry>
        </mxCell>
        <mxCell id="K5TFv7uZHJcvQe_b9qqi-176" style="connectable=0;recursiveResize=0;align=center;whiteSpace=wrap;html=1;strokeColor=#E6E6E6;" parent="K5TFv7uZHJcvQe_b9qqi-163" vertex="1">
          <mxGeometry x="920" width="100" height="80" as="geometry">
            <mxRectangle width="100" height="80" as="alternateBounds" />
          </mxGeometry>
        </mxCell>
        <mxCell id="K5TFv7uZHJcvQe_b9qqi-217" style="connectable=0;recursiveResize=0;align=center;whiteSpace=wrap;html=1;strokeColor=#E6E6E6;" parent="K5TFv7uZHJcvQe_b9qqi-163" vertex="1">
          <mxGeometry x="1020" width="100" height="80" as="geometry">
            <mxRectangle width="100" height="80" as="alternateBounds" />
          </mxGeometry>
        </mxCell>
        <mxCell id="K5TFv7uZHJcvQe_b9qqi-177" style="shape=tableRow;horizontal=0;startSize=0;swimlaneHead=0;swimlaneBody=0;top=0;left=0;bottom=0;right=0;dropTarget=0;collapsible=0;recursiveResize=0;expand=0;fontStyle=0;fillColor=none;strokeColor=inherit;" parent="K5TFv7uZHJcvQe_b9qqi-123" vertex="1">
          <mxGeometry y="160" width="1119.9999999999995" height="80" as="geometry" />
        </mxCell>
        <mxCell id="K5TFv7uZHJcvQe_b9qqi-178" value="Управление обслуживанием депозитных продуктов" style="connectable=0;recursiveResize=0;strokeColor=#FFFFFF;fillColor=none;align=center;whiteSpace=wrap;html=1;" parent="K5TFv7uZHJcvQe_b9qqi-177" vertex="1">
          <mxGeometry width="120" height="80" as="geometry">
            <mxRectangle width="120" height="80" as="alternateBounds" />
          </mxGeometry>
        </mxCell>
        <mxCell id="K5TFv7uZHJcvQe_b9qqi-180" style="connectable=0;recursiveResize=0;align=center;whiteSpace=wrap;html=1;strokeColor=#E6E6E6;" parent="K5TFv7uZHJcvQe_b9qqi-177" vertex="1">
          <mxGeometry x="120" width="200" height="80" as="geometry">
            <mxRectangle width="200" height="80" as="alternateBounds" />
          </mxGeometry>
        </mxCell>
        <mxCell id="K5TFv7uZHJcvQe_b9qqi-181" style="connectable=0;recursiveResize=0;align=center;whiteSpace=wrap;html=1;strokeColor=#E6E6E6;" parent="K5TFv7uZHJcvQe_b9qqi-177" vertex="1">
          <mxGeometry x="320" width="200" height="80" as="geometry">
            <mxRectangle width="200" height="80" as="alternateBounds" />
          </mxGeometry>
        </mxCell>
        <mxCell id="K5TFv7uZHJcvQe_b9qqi-182" style="connectable=0;recursiveResize=0;align=center;whiteSpace=wrap;html=1;strokeColor=#E6E6E6;" parent="K5TFv7uZHJcvQe_b9qqi-177" vertex="1">
          <mxGeometry x="520" width="300" height="80" as="geometry">
            <mxRectangle width="300" height="80" as="alternateBounds" />
          </mxGeometry>
        </mxCell>
        <mxCell id="K5TFv7uZHJcvQe_b9qqi-183" style="connectable=0;recursiveResize=0;align=center;whiteSpace=wrap;html=1;strokeColor=#E6E6E6;" parent="K5TFv7uZHJcvQe_b9qqi-177" vertex="1">
          <mxGeometry x="820" width="100" height="80" as="geometry">
            <mxRectangle width="100" height="80" as="alternateBounds" />
          </mxGeometry>
        </mxCell>
        <mxCell id="K5TFv7uZHJcvQe_b9qqi-184" style="connectable=0;recursiveResize=0;align=center;whiteSpace=wrap;html=1;strokeColor=#E6E6E6;" parent="K5TFv7uZHJcvQe_b9qqi-177" vertex="1">
          <mxGeometry x="920" width="100" height="80" as="geometry">
            <mxRectangle width="100" height="80" as="alternateBounds" />
          </mxGeometry>
        </mxCell>
        <mxCell id="K5TFv7uZHJcvQe_b9qqi-218" style="connectable=0;recursiveResize=0;align=center;whiteSpace=wrap;html=1;strokeColor=#E6E6E6;" parent="K5TFv7uZHJcvQe_b9qqi-177" vertex="1">
          <mxGeometry x="1020" width="100" height="80" as="geometry">
            <mxRectangle width="100" height="80" as="alternateBounds" />
          </mxGeometry>
        </mxCell>
        <mxCell id="eVlOatn5s4nPWiXCzZTe-1" style="shape=tableRow;horizontal=0;startSize=0;swimlaneHead=0;swimlaneBody=0;top=0;left=0;bottom=0;right=0;dropTarget=0;collapsible=0;recursiveResize=0;expand=0;fontStyle=0;fillColor=none;strokeColor=inherit;" vertex="1" parent="K5TFv7uZHJcvQe_b9qqi-123">
          <mxGeometry y="240" width="1119.9999999999995" height="80" as="geometry" />
        </mxCell>
        <mxCell id="eVlOatn5s4nPWiXCzZTe-2" value="Управление ослуживанием в сети отделений" style="connectable=0;recursiveResize=0;strokeColor=#FFFFFF;fillColor=none;align=center;whiteSpace=wrap;html=1;" vertex="1" parent="eVlOatn5s4nPWiXCzZTe-1">
          <mxGeometry width="120" height="80" as="geometry">
            <mxRectangle width="120" height="80" as="alternateBounds" />
          </mxGeometry>
        </mxCell>
        <mxCell id="eVlOatn5s4nPWiXCzZTe-3" style="connectable=0;recursiveResize=0;align=center;whiteSpace=wrap;html=1;strokeColor=#E6E6E6;" vertex="1" parent="eVlOatn5s4nPWiXCzZTe-1">
          <mxGeometry x="120" width="200" height="80" as="geometry">
            <mxRectangle width="200" height="80" as="alternateBounds" />
          </mxGeometry>
        </mxCell>
        <mxCell id="eVlOatn5s4nPWiXCzZTe-4" style="connectable=0;recursiveResize=0;align=center;whiteSpace=wrap;html=1;strokeColor=#E6E6E6;" vertex="1" parent="eVlOatn5s4nPWiXCzZTe-1">
          <mxGeometry x="320" width="200" height="80" as="geometry">
            <mxRectangle width="200" height="80" as="alternateBounds" />
          </mxGeometry>
        </mxCell>
        <mxCell id="eVlOatn5s4nPWiXCzZTe-5" style="connectable=0;recursiveResize=0;align=center;whiteSpace=wrap;html=1;strokeColor=#E6E6E6;" vertex="1" parent="eVlOatn5s4nPWiXCzZTe-1">
          <mxGeometry x="520" width="300" height="80" as="geometry">
            <mxRectangle width="300" height="80" as="alternateBounds" />
          </mxGeometry>
        </mxCell>
        <mxCell id="eVlOatn5s4nPWiXCzZTe-6" style="connectable=0;recursiveResize=0;align=center;whiteSpace=wrap;html=1;strokeColor=#E6E6E6;" vertex="1" parent="eVlOatn5s4nPWiXCzZTe-1">
          <mxGeometry x="820" width="100" height="80" as="geometry">
            <mxRectangle width="100" height="80" as="alternateBounds" />
          </mxGeometry>
        </mxCell>
        <mxCell id="eVlOatn5s4nPWiXCzZTe-7" style="connectable=0;recursiveResize=0;align=center;whiteSpace=wrap;html=1;strokeColor=#E6E6E6;" vertex="1" parent="eVlOatn5s4nPWiXCzZTe-1">
          <mxGeometry x="920" width="100" height="80" as="geometry">
            <mxRectangle width="100" height="80" as="alternateBounds" />
          </mxGeometry>
        </mxCell>
        <mxCell id="eVlOatn5s4nPWiXCzZTe-8" style="connectable=0;recursiveResize=0;align=center;whiteSpace=wrap;html=1;strokeColor=#E6E6E6;" vertex="1" parent="eVlOatn5s4nPWiXCzZTe-1">
          <mxGeometry x="1020" width="100" height="80" as="geometry">
            <mxRectangle width="100" height="80" as="alternateBounds" />
          </mxGeometry>
        </mxCell>
        <mxCell id="K5TFv7uZHJcvQe_b9qqi-185" style="shape=tableRow;horizontal=0;startSize=0;swimlaneHead=0;swimlaneBody=0;top=0;left=0;bottom=0;right=0;dropTarget=0;collapsible=0;recursiveResize=0;expand=0;fontStyle=0;fillColor=none;strokeColor=inherit;" parent="K5TFv7uZHJcvQe_b9qqi-123" vertex="1">
          <mxGeometry y="320" width="1119.9999999999995" height="80" as="geometry" />
        </mxCell>
        <mxCell id="K5TFv7uZHJcvQe_b9qqi-186" value="Управление обслуживанием кредитных продуктов" style="connectable=0;recursiveResize=0;strokeColor=#FFFFFF;fillColor=none;align=center;whiteSpace=wrap;html=1;" parent="K5TFv7uZHJcvQe_b9qqi-185" vertex="1">
          <mxGeometry width="120" height="80" as="geometry">
            <mxRectangle width="120" height="80" as="alternateBounds" />
          </mxGeometry>
        </mxCell>
        <mxCell id="K5TFv7uZHJcvQe_b9qqi-188" style="connectable=0;recursiveResize=0;align=center;whiteSpace=wrap;html=1;strokeColor=#E6E6E6;" parent="K5TFv7uZHJcvQe_b9qqi-185" vertex="1">
          <mxGeometry x="120" width="200" height="80" as="geometry">
            <mxRectangle width="200" height="80" as="alternateBounds" />
          </mxGeometry>
        </mxCell>
        <mxCell id="K5TFv7uZHJcvQe_b9qqi-189" style="connectable=0;recursiveResize=0;align=center;whiteSpace=wrap;html=1;strokeColor=#E6E6E6;" parent="K5TFv7uZHJcvQe_b9qqi-185" vertex="1">
          <mxGeometry x="320" width="200" height="80" as="geometry">
            <mxRectangle width="200" height="80" as="alternateBounds" />
          </mxGeometry>
        </mxCell>
        <mxCell id="K5TFv7uZHJcvQe_b9qqi-190" style="connectable=0;recursiveResize=0;align=center;whiteSpace=wrap;html=1;strokeColor=#E6E6E6;" parent="K5TFv7uZHJcvQe_b9qqi-185" vertex="1">
          <mxGeometry x="520" width="300" height="80" as="geometry">
            <mxRectangle width="300" height="80" as="alternateBounds" />
          </mxGeometry>
        </mxCell>
        <mxCell id="K5TFv7uZHJcvQe_b9qqi-191" style="connectable=0;recursiveResize=0;align=center;whiteSpace=wrap;html=1;strokeColor=#E6E6E6;" parent="K5TFv7uZHJcvQe_b9qqi-185" vertex="1">
          <mxGeometry x="820" width="100" height="80" as="geometry">
            <mxRectangle width="100" height="80" as="alternateBounds" />
          </mxGeometry>
        </mxCell>
        <mxCell id="K5TFv7uZHJcvQe_b9qqi-192" style="connectable=0;recursiveResize=0;align=center;whiteSpace=wrap;html=1;strokeColor=#E6E6E6;" parent="K5TFv7uZHJcvQe_b9qqi-185" vertex="1">
          <mxGeometry x="920" width="100" height="80" as="geometry">
            <mxRectangle width="100" height="80" as="alternateBounds" />
          </mxGeometry>
        </mxCell>
        <mxCell id="K5TFv7uZHJcvQe_b9qqi-219" style="connectable=0;recursiveResize=0;align=center;whiteSpace=wrap;html=1;strokeColor=#E6E6E6;" parent="K5TFv7uZHJcvQe_b9qqi-185" vertex="1">
          <mxGeometry x="1020" width="100" height="80" as="geometry">
            <mxRectangle width="100" height="80" as="alternateBounds" />
          </mxGeometry>
        </mxCell>
        <mxCell id="K5TFv7uZHJcvQe_b9qqi-193" style="shape=tableRow;horizontal=0;startSize=0;swimlaneHead=0;swimlaneBody=0;top=0;left=0;bottom=0;right=0;dropTarget=0;collapsible=0;recursiveResize=0;expand=0;fontStyle=0;fillColor=none;strokeColor=inherit;" parent="K5TFv7uZHJcvQe_b9qqi-123" vertex="1">
          <mxGeometry y="400" width="1119.9999999999995" height="80" as="geometry" />
        </mxCell>
        <mxCell id="K5TFv7uZHJcvQe_b9qqi-194" value="Команда цифровой трансформации розничного бизнеса" style="connectable=0;recursiveResize=0;strokeColor=#FFFFFF;fillColor=none;align=center;whiteSpace=wrap;html=1;" parent="K5TFv7uZHJcvQe_b9qqi-193" vertex="1">
          <mxGeometry width="120" height="80" as="geometry">
            <mxRectangle width="120" height="80" as="alternateBounds" />
          </mxGeometry>
        </mxCell>
        <mxCell id="K5TFv7uZHJcvQe_b9qqi-196" style="connectable=0;recursiveResize=0;align=center;whiteSpace=wrap;html=1;strokeColor=#E6E6E6;" parent="K5TFv7uZHJcvQe_b9qqi-193" vertex="1">
          <mxGeometry x="120" width="200" height="80" as="geometry">
            <mxRectangle width="200" height="80" as="alternateBounds" />
          </mxGeometry>
        </mxCell>
        <mxCell id="K5TFv7uZHJcvQe_b9qqi-197" style="connectable=0;recursiveResize=0;align=center;whiteSpace=wrap;html=1;strokeColor=#E6E6E6;" parent="K5TFv7uZHJcvQe_b9qqi-193" vertex="1">
          <mxGeometry x="320" width="200" height="80" as="geometry">
            <mxRectangle width="200" height="80" as="alternateBounds" />
          </mxGeometry>
        </mxCell>
        <mxCell id="K5TFv7uZHJcvQe_b9qqi-198" style="connectable=0;recursiveResize=0;align=center;whiteSpace=wrap;html=1;strokeColor=#E6E6E6;" parent="K5TFv7uZHJcvQe_b9qqi-193" vertex="1">
          <mxGeometry x="520" width="300" height="80" as="geometry">
            <mxRectangle width="300" height="80" as="alternateBounds" />
          </mxGeometry>
        </mxCell>
        <mxCell id="K5TFv7uZHJcvQe_b9qqi-199" style="connectable=0;recursiveResize=0;align=center;whiteSpace=wrap;html=1;strokeColor=#E6E6E6;" parent="K5TFv7uZHJcvQe_b9qqi-193" vertex="1">
          <mxGeometry x="820" width="100" height="80" as="geometry">
            <mxRectangle width="100" height="80" as="alternateBounds" />
          </mxGeometry>
        </mxCell>
        <mxCell id="K5TFv7uZHJcvQe_b9qqi-200" style="connectable=0;recursiveResize=0;align=center;whiteSpace=wrap;html=1;strokeColor=#E6E6E6;" parent="K5TFv7uZHJcvQe_b9qqi-193" vertex="1">
          <mxGeometry x="920" width="100" height="80" as="geometry">
            <mxRectangle width="100" height="80" as="alternateBounds" />
          </mxGeometry>
        </mxCell>
        <mxCell id="K5TFv7uZHJcvQe_b9qqi-220" style="connectable=0;recursiveResize=0;align=center;whiteSpace=wrap;html=1;strokeColor=#E6E6E6;" parent="K5TFv7uZHJcvQe_b9qqi-193" vertex="1">
          <mxGeometry x="1020" width="100" height="80" as="geometry">
            <mxRectangle width="100" height="80" as="alternateBounds" />
          </mxGeometry>
        </mxCell>
        <mxCell id="K5TFv7uZHJcvQe_b9qqi-203" style="shape=tableRow;horizontal=0;startSize=0;swimlaneHead=0;swimlaneBody=0;top=0;left=0;bottom=0;right=0;dropTarget=0;collapsible=0;recursiveResize=0;expand=0;fontStyle=0;fillColor=none;strokeColor=inherit;" parent="K5TFv7uZHJcvQe_b9qqi-123" vertex="1">
          <mxGeometry y="480" width="1119.9999999999995" height="80" as="geometry" />
        </mxCell>
        <mxCell id="K5TFv7uZHJcvQe_b9qqi-204" value="Кол-центр" style="connectable=0;recursiveResize=0;strokeColor=#FFFFFF;fillColor=none;align=center;whiteSpace=wrap;html=1;" parent="K5TFv7uZHJcvQe_b9qqi-203" vertex="1">
          <mxGeometry width="120" height="80" as="geometry">
            <mxRectangle width="120" height="80" as="alternateBounds" />
          </mxGeometry>
        </mxCell>
        <mxCell id="K5TFv7uZHJcvQe_b9qqi-206" style="connectable=0;recursiveResize=0;align=center;whiteSpace=wrap;html=1;strokeColor=#E6E6E6;" parent="K5TFv7uZHJcvQe_b9qqi-203" vertex="1">
          <mxGeometry x="120" width="200" height="80" as="geometry">
            <mxRectangle width="200" height="80" as="alternateBounds" />
          </mxGeometry>
        </mxCell>
        <mxCell id="K5TFv7uZHJcvQe_b9qqi-207" style="connectable=0;recursiveResize=0;align=center;whiteSpace=wrap;html=1;strokeColor=#E6E6E6;" parent="K5TFv7uZHJcvQe_b9qqi-203" vertex="1">
          <mxGeometry x="320" width="200" height="80" as="geometry">
            <mxRectangle width="200" height="80" as="alternateBounds" />
          </mxGeometry>
        </mxCell>
        <mxCell id="K5TFv7uZHJcvQe_b9qqi-208" style="connectable=0;recursiveResize=0;align=center;whiteSpace=wrap;html=1;strokeColor=#E6E6E6;" parent="K5TFv7uZHJcvQe_b9qqi-203" vertex="1">
          <mxGeometry x="520" width="300" height="80" as="geometry">
            <mxRectangle width="300" height="80" as="alternateBounds" />
          </mxGeometry>
        </mxCell>
        <mxCell id="K5TFv7uZHJcvQe_b9qqi-209" style="connectable=0;recursiveResize=0;align=center;whiteSpace=wrap;html=1;strokeColor=#E6E6E6;" parent="K5TFv7uZHJcvQe_b9qqi-203" vertex="1">
          <mxGeometry x="820" width="100" height="80" as="geometry">
            <mxRectangle width="100" height="80" as="alternateBounds" />
          </mxGeometry>
        </mxCell>
        <mxCell id="K5TFv7uZHJcvQe_b9qqi-210" style="connectable=0;recursiveResize=0;align=center;whiteSpace=wrap;html=1;strokeColor=#E6E6E6;" parent="K5TFv7uZHJcvQe_b9qqi-203" vertex="1">
          <mxGeometry x="920" width="100" height="80" as="geometry">
            <mxRectangle width="100" height="80" as="alternateBounds" />
          </mxGeometry>
        </mxCell>
        <mxCell id="K5TFv7uZHJcvQe_b9qqi-221" style="connectable=0;recursiveResize=0;align=center;whiteSpace=wrap;html=1;strokeColor=#E6E6E6;" parent="K5TFv7uZHJcvQe_b9qqi-203" vertex="1">
          <mxGeometry x="1020" width="100" height="80" as="geometry">
            <mxRectangle width="100" height="80" as="alternateBounds" />
          </mxGeometry>
        </mxCell>
        <mxCell id="eVlOatn5s4nPWiXCzZTe-10" style="shape=tableRow;horizontal=0;startSize=0;swimlaneHead=0;swimlaneBody=0;top=0;left=0;bottom=0;right=0;dropTarget=0;collapsible=0;recursiveResize=0;expand=0;fontStyle=0;fillColor=none;strokeColor=inherit;" vertex="1" parent="K5TFv7uZHJcvQe_b9qqi-123">
          <mxGeometry y="560" width="1119.9999999999995" height="130" as="geometry" />
        </mxCell>
        <mxCell id="eVlOatn5s4nPWiXCzZTe-11" value="Партнеры" style="connectable=0;recursiveResize=0;strokeColor=#FFFFFF;fillColor=none;align=center;whiteSpace=wrap;html=1;" vertex="1" parent="eVlOatn5s4nPWiXCzZTe-10">
          <mxGeometry width="120" height="130" as="geometry">
            <mxRectangle width="120" height="130" as="alternateBounds" />
          </mxGeometry>
        </mxCell>
        <mxCell id="eVlOatn5s4nPWiXCzZTe-12" style="connectable=0;recursiveResize=0;align=center;whiteSpace=wrap;html=1;strokeColor=#E6E6E6;" vertex="1" parent="eVlOatn5s4nPWiXCzZTe-10">
          <mxGeometry x="120" width="200" height="130" as="geometry">
            <mxRectangle width="200" height="130" as="alternateBounds" />
          </mxGeometry>
        </mxCell>
        <mxCell id="eVlOatn5s4nPWiXCzZTe-13" style="connectable=0;recursiveResize=0;align=center;whiteSpace=wrap;html=1;strokeColor=#E6E6E6;" vertex="1" parent="eVlOatn5s4nPWiXCzZTe-10">
          <mxGeometry x="320" width="200" height="130" as="geometry">
            <mxRectangle width="200" height="130" as="alternateBounds" />
          </mxGeometry>
        </mxCell>
        <mxCell id="eVlOatn5s4nPWiXCzZTe-14" style="connectable=0;recursiveResize=0;align=center;whiteSpace=wrap;html=1;strokeColor=#E6E6E6;" vertex="1" parent="eVlOatn5s4nPWiXCzZTe-10">
          <mxGeometry x="520" width="300" height="130" as="geometry">
            <mxRectangle width="300" height="130" as="alternateBounds" />
          </mxGeometry>
        </mxCell>
        <mxCell id="eVlOatn5s4nPWiXCzZTe-15" style="connectable=0;recursiveResize=0;align=center;whiteSpace=wrap;html=1;strokeColor=#E6E6E6;" vertex="1" parent="eVlOatn5s4nPWiXCzZTe-10">
          <mxGeometry x="820" width="100" height="130" as="geometry">
            <mxRectangle width="100" height="130" as="alternateBounds" />
          </mxGeometry>
        </mxCell>
        <mxCell id="eVlOatn5s4nPWiXCzZTe-16" style="connectable=0;recursiveResize=0;align=center;whiteSpace=wrap;html=1;strokeColor=#E6E6E6;" vertex="1" parent="eVlOatn5s4nPWiXCzZTe-10">
          <mxGeometry x="920" width="100" height="130" as="geometry">
            <mxRectangle width="100" height="130" as="alternateBounds" />
          </mxGeometry>
        </mxCell>
        <mxCell id="eVlOatn5s4nPWiXCzZTe-17" style="connectable=0;recursiveResize=0;align=center;whiteSpace=wrap;html=1;strokeColor=#E6E6E6;" vertex="1" parent="eVlOatn5s4nPWiXCzZTe-10">
          <mxGeometry x="1020" width="100" height="130" as="geometry">
            <mxRectangle width="100" height="130" as="alternateBounds" />
          </mxGeometry>
        </mxCell>
        <mxCell id="K5TFv7uZHJcvQe_b9qqi-2" value="Интернет-банк" style="rounded=1;whiteSpace=wrap;html=1;fillColor=#dae8fc;strokeColor=#6c8ebf;" parent="1" vertex="1">
          <mxGeometry x="550" y="140" width="80" height="60" as="geometry" />
        </mxCell>
        <mxCell id="K5TFv7uZHJcvQe_b9qqi-201" value="АБС" style="rounded=1;whiteSpace=wrap;html=1;fillColor=#dae8fc;strokeColor=#6c8ebf;" parent="1" vertex="1">
          <mxGeometry x="750" y="140" width="380" height="300" as="geometry" />
        </mxCell>
        <mxCell id="K5TFv7uZHJcvQe_b9qqi-202" value="Система кол-центра" style="rounded=1;whiteSpace=wrap;html=1;fillColor=#dae8fc;strokeColor=#6c8ebf;" parent="1" vertex="1">
          <mxGeometry x="150" y="540" width="180" height="120" as="geometry" />
        </mxCell>
        <mxCell id="K5TFv7uZHJcvQe_b9qqi-211" value="Система партнерского&lt;div&gt;кол-центра&lt;/div&gt;" style="rounded=1;whiteSpace=wrap;html=1;fillColor=#dae8fc;strokeColor=#6c8ebf;" parent="1" vertex="1">
          <mxGeometry x="150" y="670" width="180" height="60" as="geometry" />
        </mxCell>
        <mxCell id="K5TFv7uZHJcvQe_b9qqi-212" value="СМС-шлюз" style="rounded=1;whiteSpace=wrap;html=1;fillColor=#dae8fc;strokeColor=#6c8ebf;" parent="1" vertex="1">
          <mxGeometry x="450" y="140" width="80" height="60" as="geometry" />
        </mxCell>
        <mxCell id="K5TFv7uZHJcvQe_b9qqi-213" value="Сайт" style="rounded=1;whiteSpace=wrap;html=1;fillColor=#dae8fc;strokeColor=#6c8ebf;" parent="1" vertex="1">
          <mxGeometry x="350" y="140" width="80" height="60" as="geometry" />
        </mxCell>
        <mxCell id="eVlOatn5s4nPWiXCzZTe-9" value="Электронная почта" style="rounded=1;whiteSpace=wrap;html=1;fillColor=#dae8fc;strokeColor=#6c8ebf;" vertex="1" parent="1">
          <mxGeometry x="550" y="220" width="80" height="220" as="geometry" />
        </mxCell>
        <mxCell id="eVlOatn5s4nPWiXCzZTe-18" value="Excel" style="rounded=1;whiteSpace=wrap;html=1;fillColor=#dae8fc;strokeColor=#6c8ebf;" vertex="1" parent="1">
          <mxGeometry x="650" y="220" width="80" height="60" as="geometry" />
        </mxCell>
        <mxCell id="eVlOatn5s4nPWiXCzZTe-19" value="Excel" style="rounded=1;whiteSpace=wrap;html=1;fillColor=#dae8fc;strokeColor=#6c8ebf;" vertex="1" parent="1">
          <mxGeometry x="650" y="380" width="80" height="60" as="geometry" />
        </mxCell>
      </root>
    </mxGraphModel>
  </diagram>
</mxfile>
